<svg width="40" height="33" viewBox="0 0 40 33" fill="none" xmlns="http://www.w3.org/2000/svg">
<path d="M37.3497 0H2.65666C1.19395 0 0 1.19395 0 2.6629V29.4795C0 30.9485 1.19395 32.1424 2.65666 32.1424H37.3433C38.806 32.1424 40 30.9485 40 29.4795V2.6629C40.0062 1.19391 38.8124 0 37.3497 0ZM36.3933 4.03824C36.3933 4.37579 36.1245 4.64457 35.787 4.64457H19.2032C18.8719 4.64457 18.5968 4.37578 18.5968 4.03824C18.5968 3.70069 18.8719 3.4319 19.2032 3.4319H35.787C36.1245 3.4319 36.3933 3.70069 36.3933 4.03824ZM15.7901 4.03824C15.7901 4.94462 15.0587 5.68225 14.1461 5.68225C13.2397 5.68225 12.502 4.94462 12.502 4.03824C12.502 3.13185 13.2397 2.39422 14.1461 2.39422C15.0524 2.39422 15.7901 3.13185 15.7901 4.03824ZM10.7769 4.03824C10.7769 4.94462 10.0393 5.68225 9.13288 5.68225C8.22649 5.68225 7.48886 4.94462 7.48886 4.03824C7.48886 3.13185 8.22649 2.39422 9.13288 2.39422C10.0393 2.39422 10.7769 3.13185 10.7769 4.03824ZM4.12585 2.39422C5.03223 2.39422 5.76987 3.13185 5.76987 4.03824C5.76987 4.94462 5.03223 5.68225 4.12585 5.68225C3.21947 5.68225 2.48183 4.94462 2.48183 4.03824C2.48183 3.13185 3.21947 2.39422 4.12585 2.39422ZM38.7877 29.4737C38.7877 30.2676 38.1438 30.9114 37.35 30.9114H2.6569C1.86301 30.9114 1.21915 30.2676 1.21915 29.4737V8.15792H38.7875L38.7877 29.4737Z" fill="black"/>
<path d="M24.3551 13.3607H35.4881C35.8256 13.3607 36.1007 13.0856 36.1007 12.7481C36.1007 12.4105 35.8256 12.1355 35.4881 12.1355H24.3551C24.0176 12.1355 23.7426 12.4105 23.7426 12.7481C23.7426 13.0856 24.0176 13.3607 24.3551 13.3607Z" fill="black"/>
<path d="M24.3551 16.4781H35.4881C35.8256 16.4781 36.1007 16.203 36.1007 15.8655C36.1007 15.528 35.8256 15.2529 35.4881 15.2529H24.3551C24.0176 15.2529 23.7426 15.528 23.7426 15.8655C23.7426 16.203 24.0176 16.4781 24.3551 16.4781Z" fill="black"/>
<path d="M24.3551 19.5958H35.4881C35.8256 19.5958 36.1007 19.3207 36.1007 18.9832C36.1007 18.6456 35.8256 18.3706 35.4881 18.3706H24.3551C24.0176 18.3706 23.7426 18.6456 23.7426 18.9832C23.7426 19.3207 24.0176 19.5958 24.3551 19.5958Z" fill="black"/>
<path d="M4.95265 28.0789H13.1539C13.9228 29.2041 15.223 29.9417 16.6857 29.9417C19.0423 29.9417 20.9616 28.0226 20.9616 25.6598C20.9616 23.9533 19.9615 22.4781 18.505 21.7968L17.8236 12.9266C17.7986 12.614 17.5298 12.3577 17.2173 12.3577H14.7794C14.5231 10.4386 12.8791 8.95093 10.885 8.95093C8.89719 8.95093 7.24693 10.4387 6.99689 12.3577H4.55899C4.24019 12.3577 3.97138 12.6077 3.95265 12.9266L2.9525 25.9098C2.90874 26.4661 3.10252 27.0224 3.48382 27.4288C3.85263 27.8413 4.39004 28.0789 4.95265 28.0789ZM18.1359 26.1161H17.142V27.1163C17.142 27.3663 16.942 27.5726 16.6857 27.5726C16.4294 27.5726 16.2294 27.3663 16.2294 27.1163V26.1161H15.2292C14.9854 26.1161 14.7729 25.9161 14.7729 25.6598C14.7729 25.416 14.9792 25.2098 15.2292 25.2098H16.2294V24.2096C16.2294 23.9596 16.4294 23.7533 16.6857 23.7533C16.942 23.7533 17.142 23.9533 17.142 24.2096V25.2098H18.1359C18.386 25.2098 18.5922 25.4098 18.5922 25.6598C18.5922 25.9099 18.386 26.1161 18.1359 26.1161ZM10.8848 10.176C12.2038 10.176 13.2976 11.1199 13.5414 12.3639H8.22181C8.47184 11.1137 9.56586 10.176 10.8848 10.176ZM5.11508 13.5828H6.94661V15.0518C6.94661 15.3894 7.22165 15.6581 7.55918 15.6581C7.89048 15.6581 8.16552 15.3893 8.16552 15.0518V13.5828H13.5788V15.0518C13.5788 15.3894 13.8538 15.6581 14.1913 15.6581C14.5226 15.6581 14.7977 15.3893 14.7977 15.0518V13.5828H16.6292L17.2355 21.4216C17.048 21.3966 16.8605 21.3779 16.6667 21.3779C14.3038 21.3779 12.3848 23.297 12.3848 25.6538C12.3848 26.0726 12.4473 26.4727 12.5598 26.8477H4.95225C4.73346 26.8477 4.52094 26.7602 4.37092 26.5977C4.21465 26.4289 4.14588 26.2226 4.16464 25.9976L5.11508 13.5828Z" fill="black"/>
</svg>
