<svg width="40" height="42" viewBox="0 0 40 42" fill="none" xmlns="http://www.w3.org/2000/svg">
<path d="M9.42255 22.1796H16.0287C16.0167 22.5378 16.1007 22.8189 16.2865 23.0322C16.4177 23.1829 16.6586 23.3626 17.0614 23.3626H27.5159C27.9178 23.3626 28.1592 23.1838 28.2908 23.0331C28.4753 22.8225 28.562 22.5351 28.5513 22.1792H35.1548C35.5571 22.1792 35.7981 22.0003 35.9297 21.8506C36.1511 21.5982 36.2316 21.2522 36.1756 20.7922C35.8781 18.3917 34.2616 16.4399 32.116 15.6362C32.8825 14.9988 33.3715 14.0341 33.3715 12.9569C33.3715 11.0432 31.8266 9.48679 29.9273 9.48679C28.0281 9.48679 26.4858 11.0436 26.4858 12.9569C26.4858 14.0327 26.9731 14.9961 27.7369 15.6335C26.8397 15.9684 26.0243 16.509 25.3534 17.2253C25.0733 17.0675 24.7804 16.9313 24.4771 16.8174C25.2436 16.1799 25.7327 15.2153 25.7327 14.1376C25.7327 12.2239 24.1877 10.6671 22.2884 10.6671C20.3892 10.6671 18.8465 12.2239 18.8465 14.1376C18.8465 15.2153 19.3355 16.1795 20.1011 16.8169C19.7974 16.9308 19.5044 17.0675 19.2244 17.2253C18.5548 16.509 17.7399 15.9684 16.8427 15.6335C17.6065 14.9961 18.0942 14.0327 18.0942 12.9569C18.0942 11.0432 16.5502 9.48679 14.6522 9.48679C12.7543 9.48679 11.208 11.0436 11.208 12.9569C11.208 14.0341 11.6971 14.9988 12.4631 15.6362C10.3211 16.4391 8.70588 18.3863 8.40667 20.7797C8.38445 20.9505 8.31731 21.4709 8.64675 21.8493C8.7779 21.9999 9.01976 22.1796 9.42255 22.1796ZM29.9273 16.4292C32.5028 16.4292 34.6853 18.3684 35.0036 20.9388C35.0058 20.9572 35.0076 20.9738 35.009 20.989H28.333C27.9796 19.7666 27.274 18.7042 26.3391 17.9121C27.2918 16.9635 28.5696 16.4296 29.9273 16.4296V16.4292ZM22.2884 17.6099C24.8639 17.6099 27.0464 19.5501 27.3647 22.1222C27.367 22.1402 27.3687 22.1568 27.3701 22.172H17.2104C17.2122 22.1541 17.2139 22.1339 17.217 22.1115C17.5376 19.5451 19.7174 17.6099 22.2884 17.6099ZM9.57771 20.9303C9.89826 18.3639 12.0785 16.4287 14.6496 16.4287C16.0096 16.4287 17.2877 16.9631 18.2387 17.9116C17.3042 18.7037 16.5982 19.7666 16.2461 20.9886H9.57105C9.57238 20.9711 9.57505 20.9518 9.57771 20.9303ZM22.2884 9.62083C24.9191 9.62083 27.0593 7.46284 27.0593 4.81041C27.0593 2.15798 24.9191 0 22.2884 0C19.6578 0 17.5203 2.15798 17.5203 4.81041C17.5203 7.46284 19.6592 9.62083 22.2884 9.62083ZM20.1264 4.23035C20.3572 3.99814 20.7311 3.99859 20.9614 4.23124L21.8105 5.08924L23.6178 3.26701C23.8485 3.03436 24.222 3.03436 24.4527 3.26701C24.6834 3.49922 24.6834 3.87621 24.4527 4.10887L22.2275 6.35247C22.1168 6.46409 21.9666 6.52685 21.8101 6.52685C21.6536 6.52685 21.5033 6.46409 21.3926 6.35202L20.126 5.0722C19.8957 4.83955 19.8957 4.46255 20.1264 4.23035ZM39.614 26.9183C39.2299 26.2482 38.607 25.7681 37.8605 25.5663C37.1141 25.3646 36.3365 25.4673 35.6718 25.8546L35.3846 26.0218C35.249 25.7555 35.0743 25.5103 34.8614 25.2956C33.7361 24.1641 31.9049 24.1641 30.7787 25.296L30.7698 25.305C30.7449 25.2781 30.7214 25.2498 30.6956 25.2238C29.5699 24.0888 27.7382 24.0888 26.6125 25.2238L24.6359 27.2169L16.7658 25.0907C16.0007 24.8406 15.0621 24.9383 14.3686 25.3413L8.45291 28.7845L7.96742 27.9368C7.74024 27.5374 7.37123 27.2509 6.92798 27.1304C6.48339 27.0093 6.02058 27.0698 5.62312 27.3002L0.893605 30.0544C0.442794 30.3162 0.118691 30.7793 0.0262167 31.2935C-0.0538089 31.7395 0.0506689 32.1671 0.321867 32.4993L7.47527 41.2276C7.88695 41.7315 8.42757 42 8.96107 42C9.23583 42 9.50925 41.9287 9.76222 41.7817L12.8748 39.9689C13.6924 39.4924 13.9751 38.4322 13.5043 37.6038L13.0175 36.7539L13.8466 36.2706C14.2321 36.0474 14.3819 36.0519 14.9608 36.181L23.4582 38.4766C23.7631 38.56 24.073 38.6007 24.3811 38.6007C24.9964 38.6007 25.6046 38.4367 26.1541 38.1162L38.559 30.8958C39.9359 30.0939 40.4094 28.3098 39.614 26.9183ZM31.1055 26.6503C31.1055 26.6503 31.1086 26.6471 31.1104 26.6453L31.6132 26.1383C32.2788 25.4691 33.3618 25.4691 34.0269 26.1379C34.166 26.2782 34.2776 26.4405 34.3603 26.618L27.0429 30.8779C27.0673 30.8138 27.0886 30.7475 27.1087 30.6802L31.1055 26.6503ZM27.4479 26.0657C28.1134 25.3946 29.1955 25.3946 29.8611 26.0657C29.8869 26.0917 29.9113 26.119 29.9353 26.1468L27.0629 29.0431C27.0104 28.8974 26.9455 28.7553 26.8668 28.6182C26.6285 28.2022 26.2911 27.8673 25.8878 27.6391L27.4479 26.0657ZM4.33782 30.5708C4.62057 30.4068 4.98158 30.5045 5.1443 30.7892L6.13617 32.5244C6.29889 32.8091 6.20197 33.1731 5.91966 33.3376C5.82674 33.3914 5.72537 33.4174 5.62534 33.4174C5.42128 33.4174 5.22254 33.3102 5.11318 33.1193L4.1213 31.384C3.95859 31.0994 4.0555 30.7354 4.33782 30.5708ZM37.969 29.8648L25.5637 37.0856C25.0129 37.4075 24.3749 37.4931 23.7654 37.3272L15.2542 35.028C15.2458 35.0258 15.2377 35.0235 15.2293 35.0217C14.5335 34.8657 14.0205 34.7967 13.2571 35.2392L12.4271 35.7228L9.04377 29.8155L14.959 26.3723C15.3658 26.1361 15.9633 26.0765 16.4119 26.2262C16.423 26.2298 16.4341 26.2334 16.4452 26.236L24.6403 28.4501C24.647 28.4519 24.6532 28.4537 24.6599 28.4554L24.9822 28.5424C25.3468 28.641 25.6531 28.8795 25.8447 29.2135C26.0359 29.5474 26.0874 29.9334 25.9896 30.3001C25.7896 31.0496 25.0387 31.4786 24.2784 31.2778L24.2749 31.2769C24.27 31.2755 24.2651 31.2751 24.2602 31.2737L17.8577 29.5636C17.5425 29.4793 17.2193 29.6689 17.1357 29.9867C17.0521 30.3046 17.2402 30.6305 17.5554 30.7147L23.9965 32.4357C24.001 32.437 24.0054 32.437 24.0099 32.4383L24.996 32.701C25.7482 32.9019 26.1755 32.7557 27.1629 32.1833L36.2622 26.886C37.0763 26.4118 38.1215 26.6937 38.5914 27.5136C39.0618 28.3362 38.7826 29.391 37.969 29.8648Z" fill="black"/>
</svg>
