<svg width="40" height="43" viewBox="0 0 40 43" fill="none" xmlns="http://www.w3.org/2000/svg">
<path fill-rule="evenodd" clip-rule="evenodd" d="M18.095 12.6618C19.0391 13.9918 20.4373 15.5858 22.2094 17.3897L34.7494 29.9295C38.3615 33.5419 33.7093 38.1943 30.0969 34.5819L24.0304 28.5154L24.638 27.9078C24.877 27.6688 25.0613 27.3955 25.1909 27.1035L28.8533 30.7659C29.407 31.3193 30.3127 31.3193 30.8663 30.7659C31.4197 30.2123 31.4197 29.3066 30.8663 28.7529L18.2724 16.159C17.7187 15.6056 16.8133 15.6056 16.2594 16.159C15.706 16.7126 15.706 17.6183 16.2594 18.172L17.9411 19.8537C17.6492 19.9834 17.3759 20.1679 17.1371 20.4067L16.51 21.0336C15.1239 19.7263 13.8815 18.6725 12.8105 17.9145C13.7367 17.4583 14.6254 16.8581 15.4512 16.1167C16.5342 15.1442 17.4451 13.9666 18.095 12.6618ZM19.926 21.4192L20.8703 22.3635L21.6859 21.5358L23.1443 22.9941L22.3286 23.8221L23.6254 25.1187C24.114 25.6071 24.1138 26.4069 23.6254 26.8952L21.9526 28.5681C21.7421 28.7789 21.4482 28.8449 21.1676 28.7447C20.5363 28.5194 19.8035 28.6591 19.2978 29.1648C18.7922 29.6705 18.6521 30.4032 18.8775 31.0346C18.9775 31.3149 18.9117 31.609 18.7011 31.8196L8.75354 41.7674C8.26494 42.256 7.46538 42.256 6.97703 41.7671L5.12729 39.9174L3.27754 38.0677C2.7887 37.5793 2.7887 36.7797 3.2773 36.2911L13.2249 26.3436C13.4357 26.133 13.7298 26.067 14.0099 26.1672C14.6414 26.3925 15.3742 26.2525 15.8796 25.7468C16.3855 25.2414 16.5253 24.5084 16.3 23.8771C16.1998 23.5965 16.2661 23.3026 16.4766 23.0921L18.1494 21.4192C18.638 20.9306 19.4374 20.9306 19.926 21.4192ZM20.9707 25.2006C21.0315 25.4329 20.9717 25.6914 20.7906 25.8723L7.73058 38.9323C7.45969 39.2034 7.01611 39.2034 6.74522 38.9323L6.11215 38.2995C5.8415 38.0286 5.8415 37.585 6.11215 37.3141L16.6423 26.7842L19.1724 24.2541C19.4433 23.9832 19.8866 23.9832 20.1575 24.2541L20.7906 24.8869L20.7948 24.8914L20.799 24.8956L20.8032 24.8998L20.8072 24.904L20.8114 24.9084L20.8151 24.9129H20.8153L20.819 24.9171L20.823 24.9216L20.8267 24.926L20.827 24.9263L20.8307 24.9305L20.8344 24.9349L20.8381 24.9394L20.8383 24.9399L20.8418 24.9441L20.8453 24.9485L20.849 24.953L20.8492 24.9535L20.8524 24.9577L20.8559 24.9624L20.8594 24.9671L20.8599 24.9676L20.8628 24.9718L20.866 24.9762L20.8695 24.9812L20.8698 24.9817L20.8727 24.9859L20.8759 24.9906L20.8792 24.9955L20.8797 24.996L20.8821 25L20.8853 25.0049L20.8883 25.0099L20.8888 25.0106L20.8913 25.0146L20.8942 25.0195L20.8972 25.0242L20.898 25.0255L20.9002 25.0294L20.9029 25.0344L20.9056 25.0391L20.9064 25.0403L20.9083 25.0443L20.9113 25.0492L20.9138 25.0542L20.9145 25.0554L20.9165 25.0591L20.919 25.0643L20.9217 25.0692L20.9222 25.0705L20.9239 25.0744L20.9264 25.0796L20.9289 25.0846L20.9294 25.0861L20.9314 25.0898L20.9336 25.095L20.9358 25.1002L20.9366 25.1014L20.938 25.1051L20.9425 25.1158L20.943 25.1172L20.9464 25.1261L20.9487 25.1313L20.9492 25.1331L20.9504 25.1365L20.9524 25.142L20.9544 25.1472L20.9549 25.1489L20.9561 25.1524L20.9598 25.163L20.9603 25.1647L20.9613 25.1684L20.9633 25.1736L20.9648 25.1791L20.9652 25.1811L20.9662 25.1845L20.9677 25.19L20.9692 25.1954L20.9699 25.1971L20.9707 25.2006ZM26.4356 19.6529L35.33 10.6233L33.8687 9.16993L24.9774 18.1945L26.4356 19.6529ZM38.7049 4.49572L35.7605 6.18614L34.7904 8.40475L35.4426 9.0534L36.091 9.70553L38.3098 8.73526L40 5.79081L39.3526 5.14314L38.7049 4.49572ZM14.8757 2.51115C12.524 0.197306 9.17138 -0.516912 6.2017 0.366027L8.91929 3.04082L10.6134 4.70798L9.9994 6.99165L9.38612 9.27507L7.07895 9.89132L4.77104 10.5083L3.0774 8.84139L0.359073 6.16586C-0.520649 9.1061 0.216329 12.4167 2.56753 14.731C10.488 22.5246 22.7826 10.2943 14.8757 2.51115ZM31.9093 31.7419C32.5189 31.1323 33.5075 31.1323 34.117 31.7421C34.7269 32.3517 34.7269 33.34 34.1173 33.9496C33.5075 34.5594 32.5189 34.5594 31.9093 33.9496C31.2998 33.34 31.2995 32.3517 31.9093 31.7419Z" fill="black"/>
</svg>
