<?xml version="1.0" encoding="UTF-8" standalone="no"?>
<!-- Generator: Adobe Illustrator 27.5.0, SVG Export Plug-In . SVG Version: 6.00 Build 0)  -->

<svg
   version="1.1"
   x="0px"
   y="0px"
   viewBox="0 0 415.056 398.84601"
   xml:space="preserve"
   id="svg288"
   sodipodi:docname="12983846_5114856.svg"
   width="415.056"
   height="398.84601"
   inkscape:version="1.1.2 (0a00cf5339, 2022-02-04)"
   xmlns:inkscape="http://www.inkscape.org/namespaces/inkscape"
   xmlns:sodipodi="http://sodipodi.sourceforge.net/DTD/sodipodi-0.dtd"
   xmlns="http://www.w3.org/2000/svg"
   xmlns:svg="http://www.w3.org/2000/svg"><defs
   id="defs292">
	
</defs><sodipodi:namedview
   id="namedview290"
   pagecolor="#ffffff"
   bordercolor="#666666"
   borderopacity="1.0"
   inkscape:pageshadow="2"
   inkscape:pageopacity="0.0"
   inkscape:pagecheckerboard="0"
   showgrid="false"
   inkscape:zoom="1.105915"
   inkscape:cx="262.67841"
   inkscape:cy="266.29533"
   inkscape:window-width="1862"
   inkscape:window-height="1016"
   inkscape:window-x="0"
   inkscape:window-y="0"
   inkscape:window-maximized="1"
   inkscape:current-layer="svg288" />

<g
   id="OBJECT"
   transform="translate(-42.466126,-50.828)">
	<g
   id="g35">
		<g
   id="g31">
			<path
   style="fill:#f3f5f4"
   d="m 232.163,118.589 c 0,0 -56.466,2.486 -86.379,61.528 -29.913,59.042 -60.798,40.613 -79.038,93.873 -18.24,53.259 18.541,113.824 43.196,120.386 24.655,6.562 306.273,0 306.273,0 0,0 37.209,-25.44 40.127,-91.517 2.918,-66.077 -52.53,-88.146 -75.512,-97.54 -22.981,-9.395 -58.397,-88.189 -148.667,-86.73 z"
   id="path5" />
			<path
   style="fill:none;stroke:#bbbfbd;stroke-miterlimit:10"
   d="M 313.071,280.062 C 378.117,236.297 390.73,213.825 422.835,209.646 501.033,199.469 443.738,401.604 264.67,444.798 179.591,465.32 74.203,409.346 59.131,365.857 44.56,323.811 83.79,308.039 141.717,330.59 199.646,353.141 279.93,302.361 313.071,280.062 Z"
   id="path7" />
			
				<circle
   transform="matrix(0.675,-0.7378,0.7378,0.675,-45.6313,356.7103)"
   style="fill:#d9d9d9"
   cx="382.10901"
   cy="230.15401"
   id="ellipse9"
   r="9.9040003" />
			
				<circle
   transform="matrix(0.7071,-0.7071,0.7071,0.7071,-189.6,391.7771)"
   style="fill:none;stroke:#bbbfbd;stroke-miterlimit:10"
   cx="378.117"
   cy="424.75601"
   id="ellipse11"
   r="9.9040003" />
			<circle
   style="fill:none;stroke:#bbbfbd;stroke-miterlimit:10"
   cx="249.12199"
   cy="199.46899"
   r="9.9040003"
   id="circle13" />
			<polygon
   style="fill:none;stroke:#bbbfbd;stroke-linecap:round;stroke-linejoin:round;stroke-miterlimit:10"
   points="221.096,239.036 211.05,253.02 230.142,253.02 "
   id="polygon15" />
			<polygon
   style="fill:#d9d9d9"
   points="173.886,416.677 167.571,428.836 186.662,428.836 "
   id="polygon17" />
			<g
   id="g23">
				
					<circle
   transform="matrix(0.2298,-0.9732,0.9732,0.2298,-208.1279,262.6512)"
   style="fill:none;stroke:#bbbfbd;stroke-linecap:round;stroke-linejoin:round;stroke-miterlimit:10"
   cx="61.873001"
   cy="262.81601"
   id="ellipse19"
   r="18.893999" />
				<text
   transform="translate(54.5595,276.6644)"
   style="font-size:35.6206px;font-family:Alatsi-Regular;fill:#99c6ab"
   id="text21">?</text>
			</g>
			<g
   id="g29">
				
					<circle
   transform="matrix(0.7071,-0.7071,0.7071,0.7071,-13.0638,217.8497)"
   style="fill:#99c6ab"
   cx="256.436"
   cy="124.694"
   id="ellipse25"
   r="18.893999" />
				
					<text
   transform="translate(249.1225,138.5423)"
   style="font-size:35.6206px;font-family:Alatsi-Regular;fill:#ffffff"
   id="text27">?</text>
			</g>
		</g>
		
			<circle
   transform="matrix(0.2288,-0.9735,0.9735,0.2288,-177.9381,316.8274)"
   style="fill:#d9d9d9"
   cx="110.998"
   cy="270.72"
   id="ellipse33"
   r="9.5159998" />
	</g>
	<g
   id="g179">
		<g
   id="g53">
			<line
   style="fill:#d9d9d9"
   x1="364.18701"
   y1="129.815"
   x2="445.64301"
   y2="129.815"
   id="line37" />
			<path
   style="fill:#aed6be"
   d="m 448.098,100.651 h -85.155 c -4.861,0 -8.801,3.94 -8.801,8.801 v 51.251 c 0,4.861 3.94,8.801 8.801,8.801 h 17.333 l -3.437,8.881 c -0.995,2.572 1.983,4.85 4.205,3.217 l 16.46,-12.099 h 50.595 c 4.861,0 8.801,-3.94 8.801,-8.801 v -51.251 c -10e-4,-4.86 -3.942,-8.8 -8.802,-8.8 z"
   id="path39" />
			
				<line
   style="fill:none;stroke:#ffffff;stroke-linecap:round;stroke-linejoin:round;stroke-miterlimit:10"
   x1="364.18701"
   y1="115.018"
   x2="445.64301"
   y2="115.018"
   id="line41" />
			
				<line
   style="fill:none;stroke:#ffffff;stroke-linecap:round;stroke-linejoin:round;stroke-miterlimit:10"
   x1="364.18701"
   y1="122.416"
   x2="445.64301"
   y2="122.416"
   id="line43" />
			
				<line
   style="fill:none;stroke:#ffffff;stroke-linecap:round;stroke-linejoin:round;stroke-miterlimit:10"
   x1="364.18701"
   y1="129.815"
   x2="445.64301"
   y2="129.815"
   id="line45" />
			
				<line
   style="fill:none;stroke:#ffffff;stroke-linecap:round;stroke-linejoin:round;stroke-miterlimit:10"
   x1="364.18701"
   y1="137.214"
   x2="445.64301"
   y2="137.214"
   id="line47" />
			
				<line
   style="fill:none;stroke:#ffffff;stroke-linecap:round;stroke-linejoin:round;stroke-miterlimit:10"
   x1="364.18701"
   y1="144.61301"
   x2="445.64301"
   y2="144.61301"
   id="line49" />
			
				<line
   style="fill:none;stroke:#ffffff;stroke-linecap:round;stroke-linejoin:round;stroke-miterlimit:10"
   x1="364.18701"
   y1="152.01199"
   x2="445.64301"
   y2="152.01199"
   id="line51" />
		</g>
		<g
   id="g177">
			<path
   style="fill:#ff996a"
   d="m 181.841,263.573 c 0,0 -0.867,-7.279 -1.993,-10.746 -1.127,-3.466 -5.893,-10.052 -5.893,-10.052 0,0 -1.906,4.073 0.867,7.452 0,0 -0.173,5.373 0.087,7.279 0,0 -9.009,-7.695 -10.742,-8.475 v 0 c -1.099,-0.877 -2.44,-1.946 -4.077,-3.251 -5.979,-4.766 -9.965,-3.293 -9.446,-2.946 0.358,0.238 7.196,5.768 11.429,9.196 l -0.554,0.793 c -1.286,-1.026 -3.334,-2.661 -6.369,-5.08 -5.979,-4.766 -9.966,-3.293 -9.446,-2.946 0.435,0.29 10.444,8.397 13.708,11.042 l -0.963,1.38 c -1.266,-1.01 -3.372,-2.691 -6.593,-5.258 -5.979,-4.766 -9.965,-3.293 -9.446,-2.946 0.445,0.297 10.932,8.793 13.931,11.223 l -1.021,1.463 c -1.113,-1.011 -4.205,-3.757 -7.19,-5.84 -3.726,-2.6 -6.413,-1.387 -6.413,-1.387 0,0 0,0 1.646,1.473 1.646,1.473 10.225,8.233 10.225,8.233 0,0 13.098,11.699 16.385,12.825 l 3.205,3.058 11.793,-12.765 z"
   id="path55" />
			<path
   style="fill:#d3aa7d"
   d="m 276.131,344.378 c -7.032,10.14 -16.868,16.403 -29.945,13.742 -35.019,-7.118 -76.368,-75.094 -76.368,-75.094 l 2.081,-2.252 15.433,-16.697 53.712,48.809 16.773,-24.281 16.384,-23.711 8.097,-11.717 c 0,0 4.742,7.498 7.726,31.332 1.863,14.937 -2.071,42.858 -13.893,59.869 z"
   id="path57" />
			<path
   style="fill:#c1966b"
   d="m 276.131,344.378 c -7.032,10.14 -16.868,16.403 -29.945,13.742 -35.019,-7.118 -76.368,-75.094 -76.368,-75.094 l 2.081,-2.252 1.283,-0.713 c 0,0 49.274,67.786 70.039,57.703 12.839,-6.234 14.901,-31.085 14.597,-49.16 l 16.384,-23.711 z"
   id="path59" />
			<polygon
   style="fill:#649176"
   points="392.1,393.951 396.964,337.764 407.665,337.764 404.474,393.951 "
   id="polygon61" />
			<polygon
   style="fill:#649176"
   points="316.365,393.951 321.229,337.764 331.929,337.764 328.738,393.951 "
   id="polygon63" />
			<path
   style="fill:#649176"
   d="M 408.931,347.49 H 310.9 c -9.744,0 -17.643,-7.899 -17.643,-17.643 v -54.836 c 0,-9.744 7.899,-17.643 17.643,-17.643 h 98.031 c 9.744,0 17.643,7.899 17.643,17.643 v 54.836 c 0,9.744 -7.899,17.643 -17.643,17.643 z"
   id="path65" />
			<path
   style="fill:#7eaf92"
   d="m 400.663,347.49 h -98.031 c -9.744,0 -17.643,-7.899 -17.643,-17.643 v -54.836 c 0,-9.744 7.899,-17.643 17.643,-17.643 h 98.031 c 9.744,0 17.643,7.899 17.643,17.643 v 54.836 c -10e-4,9.744 -7.9,17.643 -17.643,17.643 z"
   id="path67" />
			<path
   style="fill:#ffd294"
   d="m 326.772,232.07 c 0,0 19.334,-3.105 45.345,23.804 l 6,138.077 H 269.409 c 0,0 -11.87,-93.152 1.966,-126.279 13.837,-33.128 38.688,-37.083 55.397,-35.602 z"
   id="path69" />
			<path
   style="fill:#ff996a"
   d="m 288.846,157.185 4.773,-6.535 40.691,13.624 -0.353,15.284 h 2.687 c 5.457,0 9.882,4.424 9.882,9.882 v 0 c 0,5.458 -4.424,9.882 -9.882,9.882 H 333.5 l -0.479,20.745 v 18.23 l -29.46,4.051 -0.722,-12.193 -0.382,-6.406 -4.275,-2.041 c -12.236,-5.839 -20.03,-18.191 -20.03,-31.75 0,-11.786 3.747,-23.261 10.694,-32.773 z"
   id="path71" />
			<path
   style="fill:#d37a57"
   d="m 302.457,223.748 0.382,6.406 c 1.083,-0.129 2.217,-0.297 3.394,-0.511 18.195,-3.317 25.318,-19.763 24.579,-28.236 10e-4,0 -6.134,20.378 -28.355,22.341 z"
   id="path73" />
			<path
   style="fill:#d37a57"
   d="m 336.948,186.609 c -0.762,0.577 -1.464,1.34 -1.715,2.294 0,0 1.519,0.506 1.657,2.21 0.138,1.703 -1.657,2.44 -1.657,2.44 0,0 1.381,2.302 3.683,1.059 2.302,-1.243 1.92,-5.582 -0.368,-6.491 0,0 3.637,-0.414 4.971,0.921 0,0 0.305,-1.339 -1.215,-2.523 -1.567,-1.223 -3.773,-1.109 -5.356,0.09 z"
   id="path75" />
			<path
   style="fill:#3f2d1f"
   d="m 288.846,157.185 c 0,0 5.51,9.484 12.63,12.553 7.12,3.069 14.73,-1.398 21.85,2.677 7.12,4.075 2.578,11.712 4.174,15.382 1.596,3.669 3.366,4.16 3.366,4.16 0,0 0.957,-10.434 3.092,-12.398 0,0 6.393,-0.054 8.383,1.809 0,0 3.572,-7.21 4.186,-12.857 0.614,-5.647 -5.647,-7.488 -5.647,-7.488 0,0 -1.473,-13.503 -18.045,-18.536 -16.572,-5.033 -29.215,2.946 -35.844,0 -6.629,-2.946 -12.644,1.474 -13.012,8.164 -0.368,6.689 4.174,9.145 4.174,9.145 0,0 -3.069,2.587 -1.841,6.572 1.228,3.985 5.08,4.905 5.08,4.905 0,0 4.534,-10.105 7.454,-14.088 z"
   id="path77" />
			<path
   style="fill:#ffffff"
   d="m 292.146,205.718 16.873,-0.829 c 0,0 -3.906,6.077 -9.466,6.019 -5.12,-0.054 -7.407,-5.19 -7.407,-5.19 z"
   id="path79" />
			<g
   id="g83">
				<path
   style="fill:#3f2d1f"
   d="m 311.54,178.237 c -0.212,0 -0.426,-0.071 -0.603,-0.217 -3.561,-2.934 -7.063,-0.442 -7.099,-0.415 -0.424,0.311 -1.019,0.217 -1.328,-0.207 -0.309,-0.424 -0.217,-1.018 0.207,-1.328 1.62,-1.183 5.677,-2.607 9.428,0.483 0.405,0.334 0.463,0.933 0.129,1.338 -0.187,0.228 -0.459,0.346 -0.734,0.346 z"
   id="path81" />
			</g>
			<g
   id="g87">
				<path
   style="fill:#3f2d1f"
   d="m 290.557,178.237 c -0.213,0 -0.426,-0.071 -0.603,-0.217 -3.561,-2.934 -7.064,-0.442 -7.099,-0.415 -0.424,0.311 -1.019,0.217 -1.328,-0.207 -0.309,-0.424 -0.217,-1.018 0.207,-1.328 1.621,-1.183 5.677,-2.607 9.428,0.483 0.406,0.334 0.463,0.933 0.129,1.338 -0.187,0.228 -0.459,0.346 -0.734,0.346 z"
   id="path85" />
			</g>
			<path
   style="fill:#9c897a"
   d="m 338.424,233.511 -5.34,-6.946 -21.209,7.474 -3.434,5.959 -2.323,-5.353 -3.221,-3.517 -3.343,6.446 c 0,0 0.101,6.464 8.282,8.181 8.18,1.717 26.056,-4.949 30.588,-12.244 z"
   id="path89" />
			<path
   style="fill:#77a58a"
   d="m 342.34,181.367 c 0,0 -3.297,-1.259 -6.427,1.619 -3.13,2.878 -2.07,5.706 -2.07,5.706 0,0 1.446,-3.41 4.545,-3.038 3.099,0.372 5.353,8.744 1.212,10.31 -4.141,1.565 -9.426,-0.82 -9.241,-7.272 0.185,-6.451 2.551,-10.1 6.451,-10.655 3.9,-0.556 5.443,2.721 5.53,3.33 z"
   id="path91" />
			<g
   id="g95">
				<path
   style="fill:#77a58a"
   d="m 313.06,213.795 c -0.4,0 -0.756,-0.283 -0.835,-0.69 -0.088,-0.462 0.214,-0.908 0.676,-0.997 16.041,-3.085 21.475,-18.191 21.528,-18.343 0.154,-0.443 0.637,-0.678 1.083,-0.524 0.444,0.154 0.679,0.638 0.525,1.082 -0.057,0.162 -5.789,16.182 -22.816,19.456 -0.053,0.011 -0.107,0.016 -0.161,0.016 z"
   id="path93" />
			</g>
			<path
   style="fill:#649176"
   d="m 309.482,213.236 c 0,1.982 1.607,3.589 3.59,3.589 1.983,0 3.589,-1.607 3.589,-3.589 0,-1.982 -1.607,-3.59 -3.589,-3.59 -1.982,0 -3.59,1.607 -3.59,3.59 z"
   id="path97" />
			<path
   style="fill:#649176"
   d="m 337.983,187.201 c 0,0 -0.454,3.965 0.417,6.087 0.871,2.121 2.235,1.023 2.5,-1.553 0.264,-2.576 -2.311,-6.189 -2.917,-4.534 z"
   id="path99" />
			<path
   style="fill:#ffffff"
   d="m 303.852,185.87 c 0,0 0.007,3.701 4.851,4.315 4.845,0.614 5.727,-4.315 5.727,-4.315 0,0 -2.751,-2.579 -6.308,-2.655 -3.556,-0.077 -4.27,2.655 -4.27,2.655 z"
   id="path101" />
			<path
   style="fill:#ffffff"
   d="m 281.719,185.87 c 0,0 0.006,3.701 4.747,4.315 4.74,0.614 5.375,-4.311 5.375,-4.311 0,0 -2.464,-2.583 -5.944,-2.659 -3.48,-0.077 -4.178,2.655 -4.178,2.655 z"
   id="path103" />
			<path
   style="fill:#3f2d1f"
   d="m 291.84,185.874 c 0,0 -2.539,-2.789 -5.256,-3.29 -2.717,-0.501 -4.582,0.822 -4.865,3.29 0,0 0.539,-2.038 3.256,-2.288 2.718,-0.251 6.865,2.288 6.865,2.288 z"
   id="path105" />
			<path
   style="fill:#3f2d1f"
   d="m 314.431,185.87 c 0,0 -2.653,-2.915 -5.493,-3.438 -2.84,-0.523 -4.789,0.859 -5.085,3.438 0,0 0.563,-2.13 3.403,-2.392 2.84,-0.261 7.175,2.392 7.175,2.392 z"
   id="path107" />
			<path
   style="fill:#d37a57"
   d="m 296.495,185.976 -2.234,13.487 c 0,0 -1.778,0.137 -4.241,-0.866 0,-0.001 5.837,-11.106 6.475,-12.621 z"
   id="path109" />
			<path
   style="fill:#649176"
   d="m 230.012,393.951 c 0,0 -0.363,-10.77 11.765,-14.144 12.129,-3.375 26.903,6.492 29.274,14.144 z"
   id="path111" />
			<ellipse
   style="fill:#3f2d1f"
   cx="308.50299"
   cy="186.81799"
   rx="3.039"
   ry="3.845"
   id="ellipse113" />
			<path
   style="fill:#3f2d1f"
   d="m 290.233,186.938 c 0,2.057 -1.327,3.725 -2.964,3.725 -1.637,0 -2.964,-1.668 -2.964,-3.725 0,-2.057 1.327,-3.725 2.964,-3.725 1.637,0 2.964,1.667 2.964,3.725 z"
   id="path115" />
			<path
   style="fill:#d37a57"
   d="m 321.939,196.434 c 0,1.677 -1.985,3.036 -4.434,3.036 -2.449,0 -4.434,-1.359 -4.434,-3.036 0,-1.676 1.985,-3.035 4.434,-3.035 2.449,-0.001 4.434,1.358 4.434,3.035 z"
   id="path117" />
			<path
   style="fill:#d37a57"
   d="m 285.733,194.979 c 0,1.676 -1.985,3.035 -4.434,3.035 -2.449,0 -4.434,-1.359 -4.434,-3.035 0,-1.677 1.985,-3.036 4.434,-3.036 2.449,0 4.434,1.359 4.434,3.036 z"
   id="path119" />
			<path
   style="fill:#e5bc89"
   d="m 401.991,359.668 c -3.07,9.237 -8.686,16.222 -15.338,21.164 -4.533,3.355 -9.541,5.759 -14.54,7.27 -20.869,6.329 -98.159,5.844 -98.159,5.844 l 2.908,-23.349 86.546,-19.453 c 0,0 -11.195,-35.513 -10.701,-64.204 0.447,-26.704 8.41,-37.709 17.381,-32.51 0.675,0.399 1.349,0.874 2.024,1.444 0,0 13.666,20.365 27.768,62.189 5.77,17.106 5.665,30.867 2.111,41.605 z"
   id="path121" />
			<path
   style="fill:#ff996a"
   d="m 268.072,373.698 -18.361,-3.346 c 0,0 -3.374,-0.578 -6.749,0.882 -3.374,1.459 -7.205,8.573 -7.205,8.573 0,0 3.101,0.046 5.198,-1.846 2.098,-1.893 2.371,-3.534 2.371,-3.534 l 6.738,0.525 0.12,1.563 c -2.25,0.492 -8.656,1.953 -11.782,3.293 -3.83,1.642 -5.837,6.657 -5.837,6.657 0,0 5.016,-0.729 7.569,-3.83 l 10.43,-1.183 0.075,0.974 c -2.15,0.146 -5.989,0.628 -9.592,2.216 -5.381,2.371 -7.022,5.563 -7.022,5.563 0,0 5.381,0 9.165,-2.918 l 2.548,-0.211 c -2.518,1.614 -4.691,5.501 -4.691,5.501 0,0 1.094,0.274 3.557,-0.821 2.462,-1.094 3.101,-2.342 3.101,-2.342 l 7.176,0.537 v 0 c 3.726,0.532 9.363,1.055 12.584,-0.019 l 6.862,1.056 2.154,-17.286 h -8.409 z"
   id="path123" />
			<path
   style="fill:#649176"
   d="M 420.924,405.25 H 75.67 c -3.12,0 -5.65,-2.53 -5.65,-5.65 v 0 c 0,-3.12 2.53,-5.65 5.65,-5.65 h 345.255 c 3.12,0 5.65,2.53 5.65,5.65 v 0 c -10e-4,3.121 -2.53,5.65 -5.651,5.65 z"
   id="path125" />
			<path
   style="fill:#7eaf92"
   d="M 288.576,405.25 H 73.41 c -1.872,0 -3.39,-2.53 -3.39,-5.65 v 0 c 0,-3.12 1.518,-5.65 3.39,-5.65 h 107.583 107.583 c 1.872,0 3.39,2.53 3.39,5.65 v 0 c 0,3.121 -1.518,5.65 -3.39,5.65 z"
   id="path127" />
			<path
   style="fill:#7eaf92"
   d="m 223.511,372.176 h -118.9 c -4.01,0 -7.481,-2.79 -8.344,-6.706 l -15.369,-69.8 c -0.754,-3.423 1.853,-6.666 5.358,-6.666 h 120.241 c 3.554,0 6.63,2.472 7.394,5.943 l 15.417,70.017 c 0.815,3.704 -2.005,7.212 -5.797,7.212 z"
   id="path129" />
			<path
   style="fill:#99c6ab"
   d="m 124.108,360.353 c -0.993,5.002 -6.83,8.058 -13.038,6.825 -6.208,-1.232 -10.435,-6.286 -9.442,-11.288 0.993,-5.002 6.83,-8.057 13.038,-6.825 6.208,1.233 10.435,6.286 9.442,11.288 z"
   id="path131" />
			<path
   style="fill:#649176"
   d="M 229.307,364.964 213.89,294.946 c -0.764,-3.471 -3.84,-5.943 -7.394,-5.943 h -6.931 c 3.554,0 6.63,2.472 7.394,5.943 l 15.417,70.018 c 0.816,3.704 -2.004,7.212 -5.797,7.212 h 6.931 c 3.793,0 6.613,-3.508 5.797,-7.212 z"
   id="path133" />
			<path
   style="fill:#649176"
   d="m 208.731,391.146 c 0,1.549 -1.251,2.8 -2.8,2.8 h -98.703 c -1.583,0 -3.022,-0.647 -4.06,-1.685 -1.047,-1.038 -1.685,-2.468 -1.685,-4.06 0,-1.132 0.34,-2.239 0.97,-3.183 l 24.429,-36.601 c 0.698,-1.03 1.856,-1.651 3.098,-1.651 h 42.712 c 1.532,0 2.494,1.66 1.719,2.988 l -20.624,35.63 c -0.766,1.319 0.187,2.962 1.702,2.962 h 50.441 c 0.775,0 1.473,0.315 1.983,0.826 0.503,0.502 0.818,1.2 0.818,1.974 z"
   id="path135" />
			<path
   style="fill:#649176"
   d="m 179.427,330.103 h -60.555 c -0.705,0 -1.277,-0.572 -1.277,-1.277 v 0 c 0,-0.705 0.572,-1.277 1.277,-1.277 h 60.555 c 0.705,0 1.277,0.572 1.277,1.277 v 0 c 0,0.706 -0.572,1.277 -1.277,1.277 z"
   id="path137" />
			<path
   style="fill:#649176"
   d="M 182.346,337.764 H 121.79 c -0.705,0 -1.277,-0.572 -1.277,-1.277 v 0 c 0,-0.705 0.572,-1.277 1.277,-1.277 h 60.555 c 0.705,0 1.277,0.572 1.277,1.277 v 0 c 0,0.706 -0.571,1.277 -1.276,1.277 z"
   id="path139" />
			<path
   style="fill:#99c6ab"
   d="m 82.152,293.138 h 128.232 c 1.043,0 2.045,0.193 2.97,0.537 -1.154,-2.787 -3.891,-4.671 -6.993,-4.671 H 86.12 c -2.669,0 -4.812,1.881 -5.352,4.289 0.442,-0.1 0.905,-0.155 1.384,-0.155 z"
   id="path141" />
			<path
   style="fill:#99c6ab"
   d="m 213.888,360.353 c -0.993,5.002 -6.83,8.058 -13.038,6.825 -6.208,-1.232 -10.435,-6.286 -9.442,-11.288 0.993,-5.002 6.83,-8.057 13.038,-6.825 6.207,1.233 10.434,6.286 9.442,11.288 z"
   id="path143" />
			<path
   style="fill:#527a62"
   d="m 208.724,391.35 c -0.106,1.491 -1.448,2.597 -2.943,2.597 h -56.172 c -2.268,0 -4.107,-1.839 -4.107,-4.106 v 0 c 0,-0.776 0.22,-1.536 0.634,-2.192 l 25.807,-40.882 h 0.749 c 1.532,0 2.494,1.66 1.719,2.988 l -20.624,35.63 c -0.766,1.319 0.187,2.962 1.702,2.962 h 50.441 c 0.775,0 1.473,0.315 1.983,0.826 0.547,0.544 0.871,1.322 0.811,2.177 z"
   id="path145" />
			<path
   style="fill:#d3aa7d"
   d="m 372.113,388.102 c -20.869,6.329 -98.159,5.844 -98.159,5.844 l 99.861,-26.572 c 10.442,-2.779 17.092,-12.997 15.394,-23.668 -4.389,-27.587 -12.884,-77.087 -19.121,-89.277 0.675,0.399 1.349,0.874 2.024,1.444 0,0 13.666,20.365 27.768,62.189 14.104,41.834 -6.888,63.72 -27.767,70.04 z"
   id="path147" />
			<path
   style="fill:none;stroke:#9c897a;stroke-linecap:round;stroke-linejoin:round;stroke-miterlimit:10"
   d="m 366.224,352.123 c 0,0 14.279,-0.201 25.875,10.387"
   id="path149" />
			<path
   style="fill:none;stroke:#e5bc89;stroke-linecap:round;stroke-linejoin:round;stroke-miterlimit:10"
   d="m 336.346,236.003 c 0,0 18.789,6.389 28.042,17.343"
   id="path151" />
			<path
   style="fill:none;stroke:#9c897a;stroke-linecap:round;stroke-linejoin:round;stroke-miterlimit:10"
   d="m 242.818,316.078 c 0,0 10.376,13.44 11.704,28.917"
   id="path153" />
			<path
   style="fill:none;stroke:#e5bc89;stroke-linecap:round;stroke-linejoin:round;stroke-miterlimit:10"
   d="m 296.488,237.673 c 0,0 -3.945,11.068 12.531,12.426 16.477,1.358 34.536,-14.806 34.536,-14.806"
   id="path155" />
			<polygon
   style="fill:#d37a57"
   points="274.326,390.985 276.479,373.698 273.954,373.698 270.096,390.334 "
   id="polygon157" />
			<path
   style="fill:none;stroke:#e5bc89;stroke-linecap:round;stroke-linejoin:round;stroke-miterlimit:10"
   d="m 307.835,245.755 c 0,0 -4.885,13.92 -8.282,49.92"
   id="path159" />
			<path
   style="fill:none;stroke:#543e2f;stroke-linecap:round;stroke-linejoin:round;stroke-miterlimit:10"
   d="m 339.388,161.176 c 0,0 -7.696,-1.821 -14.66,0.857"
   id="path161" />
			<path
   style="fill:none;stroke:#543e2f;stroke-linecap:round;stroke-linejoin:round;stroke-miterlimit:10"
   d="m 288.846,157.185 c 0,0 -0.776,11.27 13.482,12.88"
   id="path163" />
			<path
   style="fill:none;stroke:#543e2f;stroke-linecap:round;stroke-linejoin:round;stroke-miterlimit:10"
   d="m 340.657,153.747 c 0,0 1.659,4.479 0.223,7.275"
   id="path165" />
			<path
   style="fill:none;stroke:#543e2f;stroke-linecap:round;stroke-linejoin:round;stroke-miterlimit:10"
   d="m 276.085,149.176 c 0,0 -0.643,6.921 6.428,9.643"
   id="path167" />
			<path
   style="fill:none;stroke:#543e2f;stroke-linecap:round;stroke-linejoin:round;stroke-miterlimit:10"
   d="m 278.657,162.033 c 0,0 -1.313,5.18 3.575,7.411"
   id="path169" />
			<path
   style="fill:none;stroke:#543e2f;stroke-linecap:round;stroke-linejoin:round;stroke-miterlimit:10"
   d="m 301.478,144.354 c 0,0 9.119,-3.999 22.071,1.821 11.683,5.25 12.797,11.786 12.797,11.786"
   id="path171" />
			<path
   style="fill:none;stroke:#543e2f;stroke-linecap:round;stroke-linejoin:round;stroke-miterlimit:10"
   d="m 340.657,163.961 c 0,0 2.571,1.214 2.571,4.857 0,3.643 -1.763,7.357 -1.763,7.357"
   id="path173" />
			<path
   style="fill:none;stroke:#543e2f;stroke-linecap:round;stroke-linejoin:round;stroke-miterlimit:10"
   d="m 297.835,162.676 c 0,0 1.819,4.821 12.427,5.357 10.608,0.536 14.037,0.536 16.93,3.964 2.893,3.429 1.929,7.179 1.929,7.179"
   id="path175" />
		</g>
	</g>
	<g
   id="g285">
		<g
   id="g189">
			<path
   style="fill:#d9d9d9"
   d="m 293.862,50.828 h -96.544 c -5.591,0 -10.123,4.533 -10.123,10.124 v 16.53 c 0,5.591 4.532,10.123 10.123,10.123 h 12.787 l -2.975,10.274 c -0.554,1.913 1.554,3.494 3.235,2.427 l 20.02,-12.701 h 63.477 c 5.591,0 10.123,-4.532 10.123,-10.123 v -16.53 c 10e-4,-5.591 -4.532,-10.124 -10.123,-10.124 z"
   id="path181" />
			
				<line
   style="fill:none;stroke:#ffffff;stroke-linecap:round;stroke-linejoin:round;stroke-miterlimit:10"
   x1="200.325"
   y1="60.723"
   x2="291.42001"
   y2="60.723"
   id="line183" />
			
				<line
   style="fill:none;stroke:#ffffff;stroke-linecap:round;stroke-linejoin:round;stroke-miterlimit:10"
   x1="200.325"
   y1="68.452003"
   x2="291.42001"
   y2="68.452003"
   id="line185" />
			
				<line
   style="fill:none;stroke:#ffffff;stroke-linecap:round;stroke-linejoin:round;stroke-miterlimit:10"
   x1="200.325"
   y1="76.181"
   x2="291.42001"
   y2="76.181"
   id="line187" />
		</g>
		<g
   id="g283">
			<circle
   style="fill:none;stroke:#bbbfbd;stroke-miterlimit:10"
   cx="136.575"
   cy="151.062"
   r="82.197998"
   id="circle191" />
			<path
   style="fill:#99c6ab"
   d="m 213.556,151.055 c 0,28.728 -15.737,53.779 -39.058,67.007 -2.613,1.482 -5.322,2.823 -8.106,3.991 -9.171,3.858 -19.244,5.987 -29.811,5.987 -0.703,0 -1.397,-0.01 -2.091,-0.029 -0.428,-0.01 -0.855,-0.029 -1.283,-0.057 -0.304,0 -0.599,-0.009 -0.903,-0.038 -0.456,-0.019 -0.912,-0.048 -1.359,-0.085 -0.19,-0.01 -0.38,-0.019 -0.57,-0.048 -0.542,-0.029 -1.074,-0.085 -1.606,-0.133 -0.618,-0.066 -1.226,-0.133 -1.834,-0.209 L 145.97,199.91 95.403,145.086 62.408,171.743 c -0.342,-1.235 -0.656,-2.471 -0.941,-3.735 -0.104,-0.475 -0.209,-0.96 -0.304,-1.435 -0.133,-0.627 -0.257,-1.264 -0.361,-1.891 -0.076,-0.418 -0.152,-0.836 -0.209,-1.254 -0.105,-0.599 -0.19,-1.207 -0.276,-1.815 -0.048,-0.342 -0.095,-0.675 -0.133,-1.017 -0.067,-0.523 -0.133,-1.055 -0.181,-1.587 l -0.029,-0.314 c -0.057,-0.57 -0.114,-1.14 -0.152,-1.72 -0.048,-0.637 -0.095,-1.273 -0.124,-1.92 v -0.038 c -0.038,-0.656 -0.067,-1.311 -0.076,-1.977 -0.019,-0.656 -0.028,-1.321 -0.028,-1.986 0,-12.782 3.117,-24.832 8.629,-35.438 11.452,-22.046 33.262,-37.85 58.987,-40.976 3.07,-0.371 6.196,-0.561 9.37,-0.561 12.924,0 25.117,3.193 35.808,8.828 l -33.527,27.075 22.38,67.862 43.401,-62.759 c 5.692,10.73 8.914,22.979 8.914,35.97 z"
   id="path193" />
			<path
   style="fill:#7eaf92"
   d="m 68.02,115.55 27.179,29.469 -32.995,26.657 c -0.342,-1.235 -0.656,-2.471 -0.941,-3.735 -0.104,-0.475 -0.209,-0.96 -0.304,-1.435 -0.133,-0.627 -0.257,-1.264 -0.361,-1.891 -0.076,-0.418 -0.152,-0.836 -0.209,-1.254 -0.104,-0.599 -0.19,-1.207 -0.276,-1.815 -0.048,-0.342 -0.095,-0.675 -0.133,-1.017 -0.067,-0.523 -0.133,-1.055 -0.181,-1.587 l -0.028,-0.314 c -0.057,-0.57 -0.114,-1.14 -0.152,-1.72 -0.047,-0.637 -0.095,-1.273 -0.124,-1.92 v -0.038 c -0.038,-0.656 -0.066,-1.311 -0.076,-1.977 -0.019,-0.656 -0.028,-1.321 -0.028,-1.986 0,-12.782 3.117,-24.832 8.629,-35.437 z"
   id="path195" />
			<path
   style="fill:#7eaf92"
   d="m 166.188,221.986 c -9.171,3.858 -19.244,5.987 -29.812,5.987 -0.703,0 -1.397,-0.01 -2.091,-0.029 -0.428,-0.01 -0.855,-0.029 -1.283,-0.057 -0.304,0 -0.599,-0.01 -0.903,-0.038 -0.456,-0.019 -0.912,-0.048 -1.359,-0.085 -0.19,-0.01 -0.38,-0.019 -0.57,-0.048 -0.542,-0.028 -1.074,-0.085 -1.606,-0.133 -0.618,-0.066 -1.226,-0.133 -1.834,-0.209 l 19.035,-27.531 z"
   id="path197" />
			<path
   style="fill:#7eaf92"
   d="m 172.185,82.84 -33.527,27.075 -11.651,-35.342 c 3.07,-0.371 6.196,-0.561 9.37,-0.561 12.924,-0.001 25.116,3.192 35.808,8.828 z"
   id="path199" />
			<path
   style="fill:#7eaf92"
   d="m 213.352,150.987 c 0,28.728 -15.737,53.779 -39.058,67.007 l -13.257,-40.217 43.401,-62.759 c 5.693,10.729 8.914,22.978 8.914,35.969 z"
   id="path201" />
			<path
   style="fill:#649176"
   d="m 145.766,199.843 -19.035,27.531 c -0.485,-0.057 -0.969,-0.123 -1.454,-0.2 -0.399,-0.057 -0.798,-0.114 -1.197,-0.18 -0.447,-0.066 -0.884,-0.143 -1.331,-0.228 -0.589,-0.104 -1.178,-0.209 -1.768,-0.333 -0.504,-0.104 -1.007,-0.209 -1.502,-0.323 -0.314,-0.067 -0.627,-0.143 -0.941,-0.219 -0.418,-0.095 -0.827,-0.2 -1.245,-0.304 -1.359,-0.342 -2.699,-0.732 -4.029,-1.15 -0.485,-0.152 -0.969,-0.304 -1.444,-0.466 -0.646,-0.219 -1.283,-0.437 -1.91,-0.675 -0.589,-0.209 -1.178,-0.437 -1.758,-0.665 -0.589,-0.228 -1.169,-0.466 -1.739,-0.713 -0.57,-0.238 -1.14,-0.485 -1.701,-0.741 0,0 -0.009,0 -0.019,-0.01 -0.57,-0.257 -1.131,-0.523 -1.692,-0.789 -1.711,-0.817 -3.374,-1.701 -5.008,-2.642 -0.513,-0.304 -1.026,-0.608 -1.53,-0.912 -1.064,-0.637 -2.11,-1.311 -3.127,-2.005 -0.513,-0.342 -1.017,-0.694 -1.52,-1.055 -0.504,-0.352 -1.007,-0.722 -1.502,-1.093 -0.019,-0.01 -0.038,-0.029 -0.066,-0.048 -0.466,-0.352 -0.941,-0.713 -1.397,-1.074 -0.409,-0.323 -0.808,-0.637 -1.207,-0.969 -0.589,-0.475 -1.169,-0.969 -1.739,-1.464 -0.437,-0.38 -0.865,-0.76 -1.292,-1.15 -0.428,-0.39 -0.855,-0.789 -1.283,-1.188 -0.048,-0.048 -0.095,-0.086 -0.133,-0.124 -0.418,-0.409 -0.836,-0.817 -1.254,-1.235 -0.361,-0.361 -0.722,-0.732 -1.083,-1.102 -0.494,-0.513 -0.988,-1.036 -1.464,-1.568 -0.418,-0.456 -0.827,-0.922 -1.226,-1.388 -0.323,-0.361 -0.627,-0.732 -0.931,-1.102 -0.19,-0.209 -0.361,-0.418 -0.532,-0.637 -0.304,-0.371 -0.599,-0.741 -0.893,-1.112 -0.333,-0.418 -0.656,-0.836 -0.969,-1.264 -0.428,-0.561 -0.846,-1.121 -1.245,-1.701 -0.361,-0.504 -0.713,-1.007 -1.055,-1.521 -0.247,-0.361 -0.485,-0.722 -0.722,-1.093 -0.152,-0.219 -0.295,-0.447 -0.437,-0.675 -0.646,-1.007 -1.273,-2.043 -1.872,-3.089 -0.276,-0.494 -0.551,-0.988 -0.827,-1.492 -0.627,-1.15 -1.226,-2.319 -1.787,-3.507 -0.247,-0.494 -0.475,-0.998 -0.703,-1.501 -0.238,-0.532 -0.475,-1.064 -0.703,-1.596 -0.019,-0.038 -0.028,-0.086 -0.047,-0.124 -0.238,-0.561 -0.475,-1.131 -0.703,-1.701 0,-0.019 -0.01,-0.038 -0.019,-0.066 -0.228,-0.57 -0.447,-1.15 -0.656,-1.729 -0.209,-0.551 -0.409,-1.112 -0.599,-1.682 -0.171,-0.504 -0.342,-1.017 -0.504,-1.53 -0.114,-0.38 -0.238,-0.77 -0.352,-1.15 -0.009,-0.029 -0.019,-0.048 -0.019,-0.076 -0.133,-0.447 -0.266,-0.893 -0.39,-1.34 L 95.2,145.016 Z"
   id="path203" />
			<path
   style="fill:#649176"
   d="m 204.438,115.018 -43.401,62.759 -22.38,-67.862 33.527,-27.075 c 13.733,7.222 25.004,18.464 32.254,32.178 z"
   id="path205" />
			<polygon
   style="fill:#7eaf92"
   points="95.199,145.019 138.657,109.914 161.037,177.777 145.766,199.843 "
   id="polygon207" />
			<path
   style="fill:#ff996a"
   d="m 150.627,140.279 0.242,-4.053 2.705,-1.291 c 7.742,-3.695 12.674,-11.51 12.674,-20.09 0,-7.457 -2.37,-14.718 -6.766,-20.737 l -3.02,-4.135 -25.747,8.62 0.224,9.671 h -1.7 c -3.453,0 -6.253,2.799 -6.253,6.253 v 0 c 0,3.453 2.799,6.253 6.253,6.253 h 1.989 l 0.303,13.127 v 4.608 c 0,0 -4.65,4.48 -13.475,8.281 0,0 9.839,12.354 26.098,13.169 16.259,0.815 16.885,-8.962 16.885,-8.962 0,0 -6.742,-4.036 -10.608,-7.379 z"
   id="path209" />
			<path
   style="fill:#d37a57"
   d="m 150.869,136.226 -0.242,4.053 c -0.685,-0.081 -1.403,-0.188 -2.148,-0.324 -11.513,-2.099 -16.02,-12.505 -15.553,-17.866 0,0.001 3.883,12.895 17.943,14.137 z"
   id="path211" />
			<path
   style="fill:#d37a57"
   d="m 129.044,112.726 c 0.482,0.365 0.926,0.848 1.085,1.451 0,0 -0.961,0.32 -1.049,1.398 -0.087,1.078 1.049,1.544 1.049,1.544 0,0 -0.874,1.456 -2.33,0.67 -1.456,-0.786 -1.215,-3.532 0.233,-4.107 0,0 -2.301,-0.262 -3.146,0.583 0,0 -0.193,-0.847 0.769,-1.597 0.992,-0.772 2.387,-0.701 3.389,0.058 z"
   id="path213" />
			<g
   id="g217">
				<path
   style="fill:#3f2d1f"
   d="m 150.315,105.109 c -0.134,0.004 -0.268,0.053 -0.378,0.148 -2.198,1.922 -4.459,0.41 -4.482,0.394 -0.274,-0.188 -0.648,-0.118 -0.836,0.156 -0.188,0.274 -0.118,0.648 0.155,0.836 1.047,0.718 3.639,1.544 5.954,-0.48 0.25,-0.218 0.276,-0.598 0.057,-0.848 -0.122,-0.142 -0.297,-0.211 -0.47,-0.206 z"
   id="path215" />
			</g>
			<g
   id="g221">
				<path
   style="fill:#3f2d1f"
   d="m 163.843,106.587 c -0.118,-0.065 -0.258,-0.091 -0.4,-0.064 -2.87,0.537 -4.049,-1.914 -4.06,-1.939 -0.14,-0.302 -0.498,-0.431 -0.799,-0.291 -0.301,0.14 -0.431,0.498 -0.291,0.799 0.537,1.151 2.349,3.179 5.371,2.614 0.327,-0.061 0.542,-0.375 0.48,-0.702 -0.035,-0.185 -0.149,-0.333 -0.301,-0.417 z"
   id="path219" />
			</g>
			<path
   style="fill:#ffffff"
   d="m 149.986,112.258 c 0,0 -0.004,2.342 -3.07,2.73 -3.066,0.388 -3.624,-2.73 -3.624,-2.73 0,0 1.741,-1.632 3.992,-1.68 2.25,-0.048 2.702,1.68 2.702,1.68 z"
   id="path223" />
			<path
   style="fill:#ffffff"
   d="m 163.991,112.258 c 0,0 -0.004,2.342 -3.003,2.73 -2.999,0.389 -3.401,-2.728 -3.401,-2.728 0,0 1.559,-1.635 3.761,-1.683 2.201,-0.047 2.643,1.681 2.643,1.681 z"
   id="path225" />
			<path
   style="fill:#3f2d1f"
   d="m 157.586,112.261 c 0,0 1.606,-1.765 3.326,-2.082 1.719,-0.317 2.899,0.52 3.079,2.082 0,0 -0.341,-1.29 -2.061,-1.448 -1.719,-0.158 -4.344,1.448 -4.344,1.448 z"
   id="path227" />
			<path
   style="fill:#3f2d1f"
   d="m 143.292,112.258 c 0,0 1.679,-1.844 3.476,-2.175 1.797,-0.331 3.03,0.544 3.217,2.175 0,0 -0.356,-1.348 -2.153,-1.513 -1.797,-0.165 -4.54,1.513 -4.54,1.513 z"
   id="path229" />
			<path
   style="fill:#d37a57"
   d="m 154.641,112.325 1.414,8.534 c 0,0 1.125,0.087 2.683,-0.548 0,0 -3.693,-7.027 -4.097,-7.986 z"
   id="path231" />
			<path
   style="fill:#3f2d1f"
   d="m 145.121,112.858 c 0,1.344 0.861,2.433 1.923,2.433 1.062,0 1.923,-1.089 1.923,-2.433 0,-1.343 -0.861,-2.433 -1.923,-2.433 -1.062,0 -1.923,1.09 -1.923,2.433 z"
   id="path233" />
			<path
   style="fill:#3f2d1f"
   d="m 158.604,112.934 c 0,1.302 0.84,2.357 1.876,2.357 1.036,0 1.875,-1.055 1.875,-2.357 0,-1.302 -0.84,-2.357 -1.875,-2.357 -1.037,0 -1.876,1.055 -1.876,2.357 z"
   id="path235" />
			<ellipse
   style="fill:#d37a57"
   cx="141.347"
   cy="118.943"
   rx="2.8050001"
   ry="1.921"
   id="ellipse237" />
			<ellipse
   style="fill:#d37a57"
   cx="164.256"
   cy="118.022"
   rx="2.806"
   ry="1.921"
   id="ellipse239" />
			<path
   style="fill:#ffffff"
   d="m 155.66,124.147 c 0,0 -4.531,0.153 -6.364,1.833 -1.833,1.68 4.938,2.189 6.364,1.527 1.425,-0.661 2.059,-3.572 0,-3.36 z"
   id="path241" />
			<path
   style="fill:#3f2d1f"
   d="m 144.616,111.34 c 0,0 -0.903,0.428 -1.887,-0.204 0,0 0.092,0.926 0.564,1.122 z"
   id="path243" />
			<path
   style="fill:#3f2d1f"
   d="m 162.953,110.712 c 0,0 1.066,0.882 1.876,0.611 0.298,-0.1 -0.835,0.938 -0.835,0.938 -0.27,-0.984 -1.041,-1.549 -1.041,-1.549 z"
   id="path245" />
			<path
   style="fill:#847062"
   d="m 169.141,155.93 c 0,0 14.418,26.352 19.916,48.45 l -14.866,8.657 c 0,0 -5.909,-11.811 -7.944,-29.935 -2.034,-18.125 2.894,-27.172 2.894,-27.172 z"
   id="path247" />
			<path
   style="fill:#3f2d1f"
   d="m 161.037,96.428 c 0,0 -14.406,13.634 -27.574,12.141 0,0 -1.426,9.571 0.95,13.237 0,0 -1.018,1.009 -2.444,-2.822 -1.426,-3.831 -0.3,-9.123 -1.033,-10.719 0,0 -4.394,-1.041 -7.281,3.433 -2.887,4.474 3.432,9.937 7.57,9.072 l 0.19,8.227 c 0,0 -4.741,1.769 -8.746,-1.625 -4.005,-3.394 -2.036,-6.856 -2.036,-6.856 0,0 -6.041,-5.963 -6.313,-14.244 -0.272,-8.281 6.618,-13.485 6.618,-13.485 0,0 2.274,-12.252 17.411,-12.388 15.137,-0.136 19.549,4.412 19.549,4.412 0,0 9.771,1.663 12.524,12.049 2.753,10.386 -4.176,15.94 -4.176,15.94 0,0 -2.003,-13.307 -5.209,-16.372 z"
   id="path249" />
			<path
   style="fill:#3f2d1f"
   d="m 123.485,91.361 c 0,0 -0.728,-8.898 -9.172,-8.522 -8.443,0.376 -10.072,10.049 -6.407,14.529 3.666,4.48 8.451,3.462 12.015,0 3.564,-3.461 3.564,-6.007 3.564,-6.007 z"
   id="path251" />
			<path
   style="fill:#ffffff"
   d="m 134.504,126.374 -5.322,11.081 c -0.19,0.399 -0.694,0.513 -1.045,0.247 l -0.219,-0.171 -17.438,-13.476 c -0.266,-0.209 -0.352,-0.58 -0.19,-0.884 l 6.015,-11.014 0.143,-0.257 c 0.2,-0.38 0.703,-0.475 1.036,-0.2 l 16.84,13.846 c 0.237,0.201 0.313,0.543 0.18,0.828 z"
   id="path253" />
			<path
   style="fill:#9c897a"
   d="m 171.206,219.752 c -10.406,5.255 -22.171,8.211 -34.63,8.211 -10.254,0 -20.042,-2.005 -28.985,-5.654 l -5.693,-65.202 c 0,0 1.169,-4.495 8.144,-7.061 7.926,-2.927 8.011,-3.26 8.011,-3.26 30.211,15.205 42.983,4.2 42.983,4.2 l 6.652,3.383 c 0.656,0.333 1.169,0.884 1.454,1.559 1.568,3.754 6.766,16.773 7.289,25.744 0.41,7.148 -2.973,26.353 -5.225,38.08 z"
   id="path255" />
			<path
   style="fill:#9c897a"
   d="m 105.233,152.684 c 0,0 -7.367,2.925 -10.034,22.203 -2.668,19.278 0.18,29.492 0.18,29.492 l 14.665,-17.409 c 0,0.001 5.02,-26.688 -4.811,-34.286 z"
   id="path257" />
			<path
   style="fill:#ff996a"
   d="m 127.13,124.489 c -1.406,0.812 -5.066,3.372 -5.72,4.45 -0.314,0.519 -0.445,1.11 -0.499,1.588 l -0.92,-0.459 c 0.464,-1.984 1.321,-3.967 1.321,-3.967 0,0 1.459,-0.781 2.274,-1.935 0.815,-1.154 0.509,-2.076 0.509,-2.076 -0.556,0.321 -1.451,0.906 -2.384,1.568 0.013,-0.018 0.029,-0.034 0.042,-0.053 0.814,-1.154 0.509,-2.076 0.509,-2.076 -1.46,0.843 -5.26,3.501 -5.939,4.621 -0.366,0.604 -0.492,1.3 -0.534,1.819 l -0.257,-0.128 c 0.436,-2.099 1.402,-4.338 1.402,-4.338 0,0 1.459,-0.781 2.274,-1.935 0.814,-1.154 0.509,-2.076 0.509,-2.076 -1.46,0.843 -5.26,3.501 -5.939,4.621 -0.679,1.12 -0.543,2.579 -0.543,2.579 l 0.543,9.571 0.535,10.521 c 0,0 -19.338,44.258 -19.114,55.051 0.224,10.793 6.7,15.069 6.7,15.069 0,0 6.924,-0.815 11.336,-7.631 4.412,-6.816 8.485,-58.756 8.485,-58.756 0,0 2.308,-3.53 2.715,-6.906 0.407,-3.376 -1.143,-11.897 -1.143,-11.897 0.46,-1.747 1.158,-3.365 1.158,-3.365 0,0 1.406,-0.752 2.19,-1.863 0.784,-1.11 0.49,-1.997 0.49,-1.997 z"
   id="path259" />
			<path
   style="fill:#d9d9d9"
   d="m 134.504,126.374 -5.322,11.081 c -0.19,0.399 -0.694,0.513 -1.045,0.247 l -0.219,-0.171 5.379,-11.565 -16.992,-13.808 0.143,-0.257 c 0.2,-0.38 0.703,-0.475 1.036,-0.2 l 16.84,13.846 c 0.237,0.2 0.313,0.542 0.18,0.827 z"
   id="path261" />
			<polygon
   style="fill:#d9d9d9"
   points="119.234,118.776 120.074,117.376 116.306,114.373 115.568,115.824 "
   id="polygon263" />
			<path
   style="fill:#ff996a"
   d="m 222.319,158.062 -4.108,0.764 -0.111,-0.364 c 1.188,-0.406 3.979,-1.504 5.109,-3.198 1.452,-2.178 1.961,-4.284 1.961,-4.284 0,0 -2.517,1.317 -3.486,3.831 l -1.946,0.362 c 0.78,-0.483 1.503,-1.068 1.957,-1.749 1.452,-2.179 1.961,-4.284 1.961,-4.284 0,0 -2.517,1.317 -3.486,3.831 l -2.454,0.456 c 1.018,-0.799 2.084,-1.841 2.529,-2.968 0.962,-2.435 1.016,-4.601 1.016,-4.601 0,0 -2.183,1.817 -2.602,4.478 l -2.698,1.127 -11.808,3.688 0.089,-1.705 c 0,0 0.445,-0.267 1.692,-1.247 1.247,-0.98 2.803,-5.047 2.803,-5.047 0,0 -6.188,2.909 -7.696,6.115 -1.508,3.206 -2.945,11.133 -2.945,11.133 0,0 -14.191,34.149 -16.711,43.557 v 0 c 0,0 -4.874,1.885 -7.193,5.078 0,0 4.955,9.096 8.892,10.046 0,0 11.404,-2.172 16.834,-15.477 5.43,-13.305 7.618,-40.178 7.618,-40.178 l 11.399,-6.234 c 0,0 3.444,-0.98 4.631,-2.761 1.188,-1.781 1.603,-3.503 1.603,-3.503 0,0 -2.058,1.079 -2.85,3.134 z"
   id="path265" />
			<path
   style="fill:none;stroke:#847062;stroke-linecap:round;stroke-linejoin:round;stroke-miterlimit:10"
   d="m 171.548,196.818 c 0,0 -6.677,-1.286 -18.105,-1.286 -11.428,0 -22.857,2.143 -22.857,2.143"
   id="path267" />
			<path
   style="fill:none;stroke:#543e2f;stroke-linecap:round;stroke-linejoin:round;stroke-miterlimit:10"
   d="m 159.514,88.39 c 0,0 1.839,3.39 1.681,5.714"
   id="path269" />
			<path
   style="fill:none;stroke:#543e2f;stroke-linecap:round;stroke-linejoin:round;stroke-miterlimit:10"
   d="m 156.69,85.818 c 0,0 -7.462,2.429 -11.569,8.286"
   id="path271" />
			<path
   style="fill:none;stroke:#543e2f;stroke-linecap:round;stroke-linejoin:round;stroke-miterlimit:10"
   d="m 122.085,89.604 c 0,0 -1.214,2.714 -1.286,3.714 0,0 -3.988,3.714 -4.494,5.857"
   id="path273" />
			<path
   style="fill:none;stroke:#543e2f;stroke-linecap:round;stroke-linejoin:round;stroke-miterlimit:10"
   d="m 107.085,99.675 c 0.286,0.214 4.23,3.202 8.276,0.684"
   id="path275" />
			<path
   style="fill:none;stroke:#543e2f;stroke-linecap:round;stroke-linejoin:round;stroke-miterlimit:10"
   d="m 127.006,88.39 c 0,0 9.257,-8.536 24.579,-4.036"
   id="path277" />
			<path
   style="fill:none;stroke:#543e2f;stroke-linecap:round;stroke-linejoin:round;stroke-miterlimit:10"
   d="m 128.871,106.019 c 0,0 3.976,1.603 12.476,0 8.5,-1.603 16.239,-10.308 16.239,-10.308"
   id="path279" />
			<path
   style="fill:none;stroke:#847062;stroke-linecap:round;stroke-linejoin:round;stroke-miterlimit:10"
   d="m 125.438,152.684 c 0,0 11.624,4.848 23.529,4.134 11.905,-0.714 13.388,-2.857 13.388,-2.857"
   id="path281" />
		</g>
	</g>
</g>
</svg>
