<svg xmlns="http://www.w3.org/2000/svg" width="216" height="166" fill="none"><g filter="url(#a)"><g clip-path="url(#b)"><rect width="175" height="126" x="8" y="10" fill="#fff" rx="4"/><path fill="#ECA455" d="M-2 3h218v29H-2V3Z"/><rect width="82" height="82" x="17" y="41" fill="#F2F2F2" rx="3"/><path fill="#905241" d="M57.32 65.09a5.614 5.614 0 0 1-4.576-5.352c-.015-.06-.045-.11-.058-.17H47.62l.03.03s-1.561-.05-2.87.925c-1.312.973-1.693 2.064-1.795 2.4-.003.013-.031.009-.043.018l-.197.537-14.107 38.628 8.125 2.176 4.263-11.7.003-.006 1.716-4.71v.155l4.382-11.63v23.952h10.195l-.001-35.253ZM74.84 66.818l-1.394-3.8a.29.29 0 0 1-.123-.158c-.179-.618-.996-1.887-2.022-2.505-1.03-.618-2.622-.755-2.622-.755l.105-.031h-4.808c0 2.904-2.21 5.265-5.03 5.565v35.211h10.448l.074-24.04 6.061 17.07 3.824 10.499.15.558 8.127-2.176-12.79-35.438Z"/><path fill="#D9D9D9" d="M105 63a2 2 0 0 1 2-2h66a2 2 0 1 1 0 4h-66a2 2 0 0 1-2-2ZM105 71a2 2 0 0 1 2-2h66a2 2 0 1 1 0 4h-66a2 2 0 0 1-2-2Z"/><path fill="#EBEBEB" d="M105 84a2 2 0 0 1 2-2h39a2 2 0 0 1 2 2v12a2 2 0 0 1-2 2h-39a2 2 0 0 1-2-2V84Z"/><path fill="#ECA455" fill-rule="evenodd" d="M106.6 54a.401.401 0 0 1-.396-.457l.371-2.601-1.458-1.46a.4.4 0 0 1 .217-.676l2.199-.367 1.109-2.218a.399.399 0 0 1 .717.004l1.062 2.181 2.249.4a.4.4 0 0 1 .213.677l-1.459 1.459.372 2.601a.4.4 0 0 1-.577.414l-2.191-1.11-2.251 1.111a.396.396 0 0 1-.177.042ZM116.6 54a.401.401 0 0 1-.396-.457l.371-2.601-1.458-1.46a.4.4 0 0 1 .217-.676l2.199-.367 1.109-2.218a.399.399 0 0 1 .717.004l1.062 2.181 2.249.4a.4.4 0 0 1 .213.677l-1.459 1.459.372 2.601a.4.4 0 0 1-.577.414l-2.191-1.11-2.251 1.111a.396.396 0 0 1-.177.042ZM126.6 54a.401.401 0 0 1-.396-.457l.371-2.601-1.458-1.46a.4.4 0 0 1 .217-.676l2.199-.367 1.109-2.218a.399.399 0 0 1 .717.004l1.062 2.181 2.249.4a.4.4 0 0 1 .213.677l-1.459 1.459.372 2.601a.4.4 0 0 1-.577.414l-2.191-1.11-2.251 1.111a.396.396 0 0 1-.177.042ZM136.6 54a.401.401 0 0 1-.396-.457l.371-2.601-1.458-1.46a.4.4 0 0 1 .217-.676l2.199-.367 1.109-2.218a.399.399 0 0 1 .717.004l1.062 2.181 2.249.4a.4.4 0 0 1 .213.677l-1.459 1.459.372 2.601a.4.4 0 0 1-.577.414l-2.191-1.11-2.251 1.111a.396.396 0 0 1-.177.042ZM146.6 54a.401.401 0 0 1-.396-.457l.371-2.601-1.458-1.46a.4.4 0 0 1 .217-.676l2.199-.367 1.109-2.218a.399.399 0 0 1 .717.004l1.062 2.181 2.249.4a.4.4 0 0 1 .213.677l-1.459 1.459.372 2.601a.4.4 0 0 1-.577.414l-2.191-1.11-2.251 1.111a.396.396 0 0 1-.177.042Z" clip-rule="evenodd"/></g></g><g filter="url(#c)"><g clip-path="url(#d)"><rect width="68" height="89" x="136" y="69" fill="#fff" rx="4"/><path fill="#F2F2F2" d="M136 69h68v52h-68z"/><path fill="#489EA7" d="M169.5 82.553a4.132 4.132 0 0 1-3.369-3.94c-.011-.044-.033-.082-.043-.126h-3.729l.022.023s-1.149-.037-2.113.68c-.965.717-1.246 1.52-1.321 1.767-.002.01-.023.007-.032.014l-.145.395-10.384 28.434 5.981 1.603 3.138-8.613.002-.004 1.263-3.468v.114l3.226-8.56v17.631H169.501l-.001-25.95ZM182.396 83.825l-1.027-2.798a.21.21 0 0 1-.09-.116c-.132-.455-.733-1.389-1.489-1.844-.757-.455-1.93-.555-1.93-.555l.078-.023h-3.539c0 2.137-1.627 3.875-3.704 4.096v25.919h7.692l.054-17.695 4.462 12.565 2.815 7.728.11.411 5.982-1.602-9.414-26.086Z"/><path fill="#D9D9D9" d="M141 149a2 2 0 0 1 2-2h54a2 2 0 1 1 0 4h-54a2 2 0 0 1-2-2ZM141 142a2 2 0 0 1 2-2h54a2 2 0 1 1 0 4h-54a2 2 0 0 1-2-2Z"/><path fill="#ECA455" fill-rule="evenodd" d="M143.6 136a.4.4 0 0 1-.396-.457l.371-2.601-1.458-1.459a.4.4 0 0 1 .217-.677l2.199-.367 1.109-2.218a.4.4 0 0 1 .717.004l1.062 2.181 2.249.401a.4.4 0 0 1 .213.676l-1.459 1.459.372 2.601a.401.401 0 0 1-.577.414l-2.191-1.11-2.251 1.111a.397.397 0 0 1-.177.042ZM153.6 136a.4.4 0 0 1-.396-.457l.371-2.601-1.458-1.459a.4.4 0 0 1 .217-.677l2.199-.367 1.109-2.218a.4.4 0 0 1 .717.004l1.062 2.181 2.249.401a.4.4 0 0 1 .213.676l-1.459 1.459.372 2.601a.401.401 0 0 1-.577.414l-2.191-1.11-2.251 1.111a.397.397 0 0 1-.177.042ZM163.6 136a.4.4 0 0 1-.396-.457l.371-2.601-1.458-1.459a.4.4 0 0 1 .217-.677l2.199-.367 1.109-2.218a.4.4 0 0 1 .717.004l1.062 2.181 2.249.401a.4.4 0 0 1 .213.676l-1.459 1.459.372 2.601a.401.401 0 0 1-.577.414l-2.191-1.11-2.251 1.111a.397.397 0 0 1-.177.042ZM173.6 136a.4.4 0 0 1-.396-.457l.371-2.601-1.458-1.459a.4.4 0 0 1 .217-.677l2.199-.367 1.109-2.218a.4.4 0 0 1 .717.004l1.062 2.181 2.249.401a.4.4 0 0 1 .213.676l-1.459 1.459.372 2.601a.401.401 0 0 1-.577.414l-2.191-1.11-2.251 1.111a.397.397 0 0 1-.177.042ZM183.6 136a.4.4 0 0 1-.396-.457l.371-2.601-1.458-1.459a.4.4 0 0 1 .217-.677l2.199-.367 1.109-2.218a.4.4 0 0 1 .717.004l1.062 2.181 2.249.401a.4.4 0 0 1 .213.676l-1.459 1.459.372 2.601a.401.401 0 0 1-.577.414l-2.191-1.11-2.251 1.111a.397.397 0 0 1-.177.042Z" clip-rule="evenodd"/></g></g><defs><clipPath id="b"><rect width="175" height="126" x="8" y="10" fill="#fff" rx="4"/></clipPath><clipPath id="d"><rect width="68" height="89" x="136" y="69" fill="#fff" rx="4"/></clipPath><filter id="a" width="185" height="136" x="3" y="5" color-interpolation-filters="sRGB" filterUnits="userSpaceOnUse"><feFlood flood-opacity="0" result="BackgroundImageFix"/><feColorMatrix in="SourceAlpha" result="hardAlpha" values="0 0 0 0 0 0 0 0 0 0 0 0 0 0 0 0 0 0 127 0"/><feOffset dy="1"/><feGaussianBlur stdDeviation="1"/><feColorMatrix values="0 0 0 0 0 0 0 0 0 0 0 0 0 0 0 0 0 0 0.15 0"/><feBlend in2="BackgroundImageFix" result="effect1_dropShadow_9393_30750"/><feColorMatrix in="SourceAlpha" result="hardAlpha" values="0 0 0 0 0 0 0 0 0 0 0 0 0 0 0 0 0 0 127 0"/><feOffset/><feGaussianBlur stdDeviation="2.5"/><feColorMatrix values="0 0 0 0 0 0 0 0 0 0 0 0 0 0 0 0 0 0 0.05 0"/><feBlend in2="effect1_dropShadow_9393_30750" result="effect2_dropShadow_9393_30750"/><feBlend in="SourceGraphic" in2="effect2_dropShadow_9393_30750" result="shape"/></filter><filter id="c" width="78" height="99" x="131" y="64" color-interpolation-filters="sRGB" filterUnits="userSpaceOnUse"><feFlood flood-opacity="0" result="BackgroundImageFix"/><feColorMatrix in="SourceAlpha" result="hardAlpha" values="0 0 0 0 0 0 0 0 0 0 0 0 0 0 0 0 0 0 127 0"/><feOffset dy="1"/><feGaussianBlur stdDeviation="1"/><feColorMatrix values="0 0 0 0 0 0 0 0 0 0 0 0 0 0 0 0 0 0 0.15 0"/><feBlend in2="BackgroundImageFix" result="effect1_dropShadow_9393_30750"/><feColorMatrix in="SourceAlpha" result="hardAlpha" values="0 0 0 0 0 0 0 0 0 0 0 0 0 0 0 0 0 0 127 0"/><feOffset/><feGaussianBlur stdDeviation="2.5"/><feColorMatrix values="0 0 0 0 0 0 0 0 0 0 0 0 0 0 0 0 0 0 0.05 0"/><feBlend in2="effect1_dropShadow_9393_30750" result="effect2_dropShadow_9393_30750"/><feBlend in="SourceGraphic" in2="effect2_dropShadow_9393_30750" result="shape"/></filter></defs></svg>