<svg xmlns="http://www.w3.org/2000/svg" width="216" height="166" fill="none"><g filter="url(#a)"><g clip-path="url(#b)"><rect width="203" height="145" x="6" y="11" fill="#fff" rx="4"/><path fill="#006852" d="M-4 4h218v29H-4V4Z"/><rect width="104" height="104" x="15" y="42" fill="#F2F2F2" rx="3"/><g clip-path="url(#c)"><path fill="#489EA7" d="M102.858 75.62 80.422 64.5c-2.316 3.204-7.444 5.44-13.425 5.44-5.98 0-11.108-2.236-13.425-5.44L31.136 75.62a1.857 1.857 0 0 0-.83 2.478l6.592 13.194c.46.91 1.567 1.28 2.477.83l6.523-3.192c1.221-.6 2.65.288 2.65 1.66v29.222a3.684 3.684 0 0 0 3.688 3.688h29.5a3.684 3.684 0 0 0 3.687-3.688V90.578c0-1.36 1.429-2.26 2.65-1.66l6.523 3.192c.91.461 2.016.092 2.477-.83l6.603-13.182a1.84 1.84 0 0 0-.818-2.478Z"/></g><path fill="#D9D9D9" d="M133.5 75a2 2 0 0 1 2-2h51a2 2 0 1 1 0 4h-51a2 2 0 0 1-2-2ZM133.5 83a2 2 0 0 1 2-2h51a2 2 0 1 1 0 4h-51a2 2 0 0 1-2-2Z"/><path fill="#EBEBEB" d="M133.5 100a2 2 0 0 1 2-2h51a2 2 0 0 1 2 2v12a2 2 0 0 1-2 2h-51a2 2 0 0 1-2-2v-12Z"/><g fill="#CC4B41" clip-path="url(#d)"><path d="m188.87 111.07 10 4a1.005 1.005 0 0 1 .491 1.433c-.097.166-.24.3-.411.387l-3.7 1.86-1.85 3.7a1.003 1.003 0 0 1-.9.55h-.04a1.002 1.002 0 0 1-.89-.63l-4-10a1.005 1.005 0 0 1 .727-1.351.994.994 0 0 1 .573.051ZM189.207 107.707a.997.997 0 0 1-1.414 0 .997.997 0 0 1-.293-.707v-3a.997.997 0 0 1 1-1 .997.997 0 0 1 1 1v3c0 .265-.105.52-.293.707ZM184.207 111.293a.997.997 0 0 1 0 1.414.997.997 0 0 1-.707.293h-3a.997.997 0 0 1-1-1 .997.997 0 0 1 1-1h3c.265 0 .52.105.707.293ZM183.207 105.293a.999.999 0 1 0-1.414 1.414l2 2a.999.999 0 1 0 1.414-1.414l-2-2ZM195.207 105.293a.999.999 0 0 0-1.414 0l-2 2a.999.999 0 1 0 1.414 1.414l2-2a.999.999 0 0 0 0-1.414ZM181.793 117.293l2-2a.999.999 0 1 1 1.414 1.414l-2 2a.999.999 0 1 1-1.414-1.414Z"/></g><path fill="#CC4B41" fill-rule="evenodd" d="M61.06 22.828a1 1 0 0 0 .268-1.389ZM60.5 22a154.7 154.7 0 0 0-.561-.828l-.004.002-.01.007-.036.025-.139.096a85.396 85.396 0 0 0-2.419 1.756 99.465 99.465 0 0 0-6.049 4.937c-4.574 4.053-9.849 9.553-12.203 15.115-3.22 7.607-1.363 16.668 3.122 25.343 4.5 8.702 11.735 17.206 19.628 23.842 7.875 6.622 16.518 11.478 23.87 12.741 3.688.634 7.135.377 9.997-1.111 2.886-1.5 5.045-4.183 6.26-8.131 1.8-5.85-.392-11.326-2.33-16.167-.182-.454-.361-.902-.535-1.344-2.087-5.315-3.38-9.784.184-14.15 1.924-2.359 4.492-2.906 7.597-2.458 3.119.45 6.585 1.882 10.133 3.348l.151.063c3.517 1.453 7.147 2.944 10.3 3.218 1.602.139 3.159-.026 4.551-.723 1.407-.703 2.548-1.9 3.393-3.646 1.897-3.921.849-7.394-.216-10.57l-.154-.455c-1.033-3.065-1.982-5.88-1.067-9.14.664-2.367 1.99-3.87 3.765-4.74 1.813-.887 4.185-1.155 6.963-.84 5.562.628 12.407 3.552 18.691 7.678 6.279 4.124 11.868 9.363 14.981 14.503 3.122 5.155 3.602 9.89.393 13.46-1.564 1.741-3.605 2.584-5.947 2.985-2.078.355-4.304.352-6.569.348h-.964c-2.53.003-5.126.068-7.297.837-2.259.8-4.05 2.356-4.934 5.202-1.068 3.439.301 6.471 2.66 8.957 2.344 2.47 5.776 4.537 9.233 6.19 3.473 1.66 7.053 2.939 9.756 3.802 1.353.432 2.492.761 3.293.982.401.111.718.194.935.251l.25.064.066.016.022.006h.002l.238-.971-.238.971a1 1 0 0 0 .476-1.942l-.018-.005-.06-.015-.236-.06a84.424 84.424 0 0 1-4.122-1.203c-2.654-.846-6.14-2.094-9.502-3.7-3.378-1.616-6.551-3.557-8.644-5.762-2.077-2.189-2.975-4.496-2.201-6.988.682-2.196 1.979-3.304 3.691-3.91 1.801-.637 4.061-.719 6.632-.723l.948.001c2.246.005 4.66.01 6.92-.377 2.613-.447 5.133-1.432 7.098-3.619 4.085-4.545 3.137-10.37-.171-15.833-3.317-5.478-9.161-10.914-15.593-15.138-6.429-4.222-13.576-7.318-19.564-7.995-2.998-.339-5.791-.082-8.067 1.033-2.314 1.133-4.003 3.108-4.812 5.995-1.086 3.874.054 7.239 1.061 10.21l.19.562c1.065 3.176 1.825 5.933.312 9.063-.686 1.417-1.539 2.253-2.487 2.728-.962.48-2.119.637-3.484.518-2.782-.241-6.102-1.583-9.709-3.074l-.285-.117c-3.442-1.423-7.107-2.938-10.478-3.425-3.522-.508-6.911.085-9.432 3.173-4.361 5.343-2.562 10.885-.496 16.146.169.43.339.857.509 1.283 1.973 4.958 3.888 9.769 2.306 14.909-1.087 3.531-2.942 5.734-5.27 6.944-2.352 1.223-5.32 1.502-8.736.915-6.854-1.178-15.173-5.786-22.922-12.3-7.731-6.501-14.782-14.805-19.138-23.23-4.37-8.453-5.938-16.839-3.057-23.645 2.167-5.122 7.143-10.372 11.688-14.398a97.477 97.477 0 0 1 5.925-4.836 83.552 83.552 0 0 1 2.355-1.71l.13-.09.032-.022.008-.005.002-.001m.267-1.389a1 1 0 0 0-1.39-.267Zm-1.39-.267L60.5 22Z" clip-rule="evenodd"/></g></g><defs><clipPath id="b"><rect width="203" height="145" x="6" y="11" fill="#fff" rx="4"/></clipPath><clipPath id="c"><path fill="#fff" d="M30.125 64.5h73.75v59h-73.75z"/></clipPath><clipPath id="d"><path fill="#fff" d="M179.5 103h20v20h-20z"/></clipPath><filter id="a" width="213" height="155" x="1" y="6" color-interpolation-filters="sRGB" filterUnits="userSpaceOnUse"><feFlood flood-opacity="0" result="BackgroundImageFix"/><feColorMatrix in="SourceAlpha" result="hardAlpha" values="0 0 0 0 0 0 0 0 0 0 0 0 0 0 0 0 0 0 127 0"/><feOffset dy="1"/><feGaussianBlur stdDeviation="1"/><feColorMatrix values="0 0 0 0 0 0 0 0 0 0 0 0 0 0 0 0 0 0 0.15 0"/><feBlend in2="BackgroundImageFix" result="effect1_dropShadow_9396_30817"/><feColorMatrix in="SourceAlpha" result="hardAlpha" values="0 0 0 0 0 0 0 0 0 0 0 0 0 0 0 0 0 0 127 0"/><feOffset/><feGaussianBlur stdDeviation="2.5"/><feColorMatrix values="0 0 0 0 0 0 0 0 0 0 0 0 0 0 0 0 0 0 0.05 0"/><feBlend in2="effect1_dropShadow_9396_30817" result="effect2_dropShadow_9396_30817"/><feBlend in="SourceGraphic" in2="effect2_dropShadow_9396_30817" result="shape"/></filter></defs></svg>