<svg xmlns="http://www.w3.org/2000/svg" width="216" height="166" fill="none"><g filter="url(#a)"><g clip-path="url(#b)"><rect width="203" height="145" x="6" y="11" fill="#fff" rx="4"/><path fill="#EF7866" d="M-4 4h218v29H-4V4Z"/><rect width="104" height="104" x="15" y="42" fill="#F2F2F2" rx="3"/><path fill="#EAAF95" d="M81.2 104.6h15.7c.6-1.3 1.6-3.5 1.9-5.8.6-4.5-.3-7.4-1.2-9.7h-.9c-8.5 0-15.5 7-15.5 15.5Z"/><path fill="#EAAF95" d="M96.7 86.9h.1c-.5-1.6-.8-2.9 0-4.6 1.2-2.5-1.7-5.2-3.2-3.3-4.7 5.8-17.4 3.3-20.3-1.6-1.8-3-2.8 2.5-10.1 6.2l2.1 3.6c.5.9.2 2.2-.7 2.7-.9.5-2.2.2-2.7-.7l-2.3-4c-1.5.6-3 1.1-4.3 1.6l1.9 3.5c.5 1 .2 2.2-.8 2.7s-2.2.2-2.7-.8l-2.1-3.9c-1.5.6-2.8 1.2-4 1.9l2 3.5c.5.9.2 2.2-.7 2.7-1 .5-2.2.2-2.7-.7l-2-3.5c-6 3.8-7.2 7.4-6.9 12.5h23.8c2.1-3 5.6-4.9 9.3-4.9 3.4 0 6.6 1.5 8.7 4.1.4-9.5 8.2-17 17.6-17Z"/><path fill="#EAAF95" d="M78.1 107.6c-1.4-3-4.3-4.9-7.7-4.9-3.4 0-6.3 1.9-7.7 4.9H35.9c-1.3 0-1.3 3.8 0 3.8H66v-.4c0-1.5.8-2.8 2-3.6.7-.5 1.5-.7 2.4-.7.9 0 1.7.3 2.4.7 1.2.8 2 2 2 3.6v.4h23.3c.9 0 .9-3.8 0-3.8h-20Z"/><path fill="#D9D9D9" d="M133.5 65a2 2 0 0 1 2-2h51a2 2 0 1 1 0 4h-51a2 2 0 0 1-2-2ZM133.5 73a2 2 0 0 1 2-2h51a2 2 0 1 1 0 4h-51a2 2 0 0 1-2-2ZM151 117a2 2 0 0 1 2-2h34a2 2 0 1 1 0 4h-34a2 2 0 0 1-2-2Z"/><path fill="#EBEBEB" d="M133.5 90a2 2 0 0 1 2-2h51a2 2 0 0 1 2 2v12a2 2 0 0 1-2 2h-51a2 2 0 0 1-2-2V90Z"/><g clip-path="url(#c)"><path fill="#DF5D52" d="M136.8 109.8a4 4 0 0 0-4 4v.359c0 4.267 2.364 7.717 6.878 9.965a.722.722 0 0 0 .644 0c4.514-2.248 6.878-5.698 6.878-9.965v-.359a4 4 0 0 0-7.2-2.4 3.993 3.993 0 0 0-3.2-1.6Z"/></g><g clip-path="url(#d)"><path fill="#fff" d="M192 17.5a2.5 2.5 0 0 0-2.5 2.5v.224c0 2.668 1.477 4.823 4.299 6.229a.45.45 0 0 0 .402 0c2.822-1.406 4.299-3.561 4.299-6.229V20a2.5 2.5 0 0 0-4.5-1.5 2.496 2.496 0 0 0-2-1Z"/></g></g></g><defs><clipPath id="b"><rect width="203" height="145" x="6" y="11" fill="#fff" rx="4"/></clipPath><clipPath id="c"><path fill="#fff" d="M132 109h16v16h-16z"/></clipPath><clipPath id="d"><path fill="#fff" d="M189 17h10v10h-10z"/></clipPath><filter id="a" width="213" height="155" x="1" y="6" color-interpolation-filters="sRGB" filterUnits="userSpaceOnUse"><feFlood flood-opacity="0" result="BackgroundImageFix"/><feColorMatrix in="SourceAlpha" result="hardAlpha" values="0 0 0 0 0 0 0 0 0 0 0 0 0 0 0 0 0 0 127 0"/><feOffset dy="1"/><feGaussianBlur stdDeviation="1"/><feColorMatrix values="0 0 0 0 0 0 0 0 0 0 0 0 0 0 0 0 0 0 0.15 0"/><feBlend in2="BackgroundImageFix" result="effect1_dropShadow_9436_36447"/><feColorMatrix in="SourceAlpha" result="hardAlpha" values="0 0 0 0 0 0 0 0 0 0 0 0 0 0 0 0 0 0 127 0"/><feOffset/><feGaussianBlur stdDeviation="2.5"/><feColorMatrix values="0 0 0 0 0 0 0 0 0 0 0 0 0 0 0 0 0 0 0.05 0"/><feBlend in2="effect1_dropShadow_9436_36447" result="effect2_dropShadow_9436_36447"/><feBlend in="SourceGraphic" in2="effect2_dropShadow_9436_36447" result="shape"/></filter></defs></svg>